<?xml version="1.0" encoding="UTF-8"?>
<!DOCTYPE svg PUBLIC "-//W3C//DTD SVG 1.1//EN" "http://www.w3.org/Graphics/SVG/1.1/DTD/svg11.dtd">
<svg xmlns="http://www.w3.org/2000/svg" version="1.1" width="1920px" height="1080px" style="shape-rendering:geometricPrecision; text-rendering:geometricPrecision; image-rendering:optimizeQuality; fill-rule:evenodd; clip-rule:evenodd" xmlns:xlink="http://www.w3.org/1999/xlink">
<g><path style="opacity:0.991" fill="#fcfdfc" d="M 787.5,249.5 C 877.232,244.13 950.732,275.797 1008,344.5C 1067.44,423.281 1080.44,509.281 1047,602.5C 1014.67,679.826 958.507,730.993 878.5,756C 791.959,777.761 713.626,761.427 643.5,707C 567.564,639.528 538.397,555.694 556,455.5C 574.8,370.709 623.3,309.542 701.5,272C 729.06,259.778 757.726,252.278 787.5,249.5 Z M 796.5,373.5 C 844.483,370.918 883.317,388.252 913,425.5C 944.655,476.714 945.321,528.381 915,580.5C 884.999,626.913 842.499,646.413 787.5,639C 738.74,626.248 704.907,596.415 686,549.5C 676.767,524.864 675.434,499.864 682,474.5C 693.668,424.498 724.168,392.331 773.5,378C 781.244,376.151 788.911,374.651 796.5,373.5 Z"/></g>
<g><path style="opacity:0.989" fill="#fcfdfc" d="M 1354.5,249.5 C 1391.53,246.282 1426.86,252.449 1460.5,268C 1498.53,287.727 1520.7,318.894 1527,361.5C 1529.41,375.074 1530.91,388.74 1531.5,402.5C 1493.83,402.833 1456.16,402.5 1418.5,401.5C 1416.62,377.788 1404.28,362.621 1381.5,356C 1353.43,352.684 1338.1,365.017 1335.5,393C 1336.45,405.899 1342.12,416.232 1352.5,424C 1360.66,429.583 1369,434.916 1377.5,440C 1406.66,454.745 1435.66,469.745 1464.5,485C 1523.86,521.907 1546.36,574.741 1532,643.5C 1513.88,703.956 1474.71,743.456 1414.5,762C 1372.75,770.201 1331.75,767.534 1291.5,754C 1241.85,732.658 1212.69,695.158 1204,641.5C 1201.46,625.211 1200.96,608.877 1202.5,592.5C 1241.5,592.5 1280.5,592.5 1319.5,592.5C 1318.72,611.789 1323.55,629.455 1334,645.5C 1345.33,657.718 1359.16,661.885 1375.5,658C 1405.48,650.581 1416.31,631.748 1408,601.5C 1404.6,586.866 1396.1,576.366 1382.5,570C 1350.29,555.045 1318.29,539.712 1286.5,524C 1243.31,499.489 1217.48,462.655 1209,413.5C 1206.91,352.633 1231.41,305.799 1282.5,273C 1304.81,259.617 1328.81,251.784 1354.5,249.5 Z"/></g>
<g><path style="opacity:0.99" fill="#fcfdfc" d="M 132.5,257.5 C 169.835,257.333 207.168,257.5 244.5,258C 304.791,349.414 364.958,440.914 425,532.5C 425.5,440.834 425.667,349.167 425.5,257.5C 465.833,257.5 506.167,257.5 546.5,257.5C 546.5,424.167 546.5,590.833 546.5,757.5C 510.832,757.667 475.165,757.5 439.5,757C 378,665.5 316.5,574 255,482.5C 254.5,574.166 254.333,665.833 254.5,757.5C 213.833,757.5 173.167,757.5 132.5,757.5C 132.5,590.833 132.5,424.167 132.5,257.5 Z"/></g>
<g><path style="opacity:0.984" fill="#fcfdfc" d="M 1072.5,257.5 C 1113.17,257.5 1153.83,257.5 1194.5,257.5C 1194.5,424.167 1194.5,590.833 1194.5,757.5C 1153.83,757.5 1113.17,757.5 1072.5,757.5C 1072.5,590.833 1072.5,424.167 1072.5,257.5 Z"/></g>
<g><path style="opacity:0.991" fill="#fcfdfc" d="M 1541.5,257.5 C 1631.83,257.5 1722.17,257.5 1812.5,257.5C 1812.5,294.167 1812.5,330.833 1812.5,367.5C 1763.17,367.5 1713.83,367.5 1664.5,367.5C 1664.5,394.5 1664.5,421.5 1664.5,448.5C 1713.83,448.5 1763.17,448.5 1812.5,448.5C 1812.5,485.5 1812.5,522.5 1812.5,559.5C 1763.17,559.5 1713.83,559.5 1664.5,559.5C 1664.5,588.5 1664.5,617.5 1664.5,646.5C 1713.83,646.5 1763.17,646.5 1812.5,646.5C 1812.5,683.5 1812.5,720.5 1812.5,757.5C 1722.17,757.5 1631.83,757.5 1541.5,757.5C 1541.5,590.833 1541.5,424.167 1541.5,257.5 Z"/></g>
<g><path style="opacity:0.99" fill="#fcfdfc" d="M 798.5,392.5 C 836.619,390.487 868.453,403.487 894,431.5C 921.166,470.174 925.833,511.507 908,555.5C 881.552,608.807 839.052,629.64 780.5,618C 743.246,605.08 717.413,580.247 703,543.5C 694.244,514.545 695.244,485.878 706,457.5C 724.727,418.711 755.56,397.044 798.5,392.5 Z"/></g>
</svg>
